<mxfile host="app.diagrams.net" modified="2023-07-09T06:07:44.716Z" agent="Mozilla/5.0 (Windows NT 10.0; Win64; x64) AppleWebKit/537.36 (KHTML, like Gecko) Chrome/114.0.0.0 Safari/537.36" version="21.6.1" etag="Kx7aDbtdM--Upn-R3fBw" type="github">
  <diagram name="Page-1" id="cC_zP4I_xgYjMpr82xzc">
    <mxGraphModel>
      <root>
        <mxCell id="0" />
        <mxCell id="1" parent="0" />
      </root>
    </mxGraphModel>
  </diagram>
</mxfile>
